<?xml version="1.0" encoding="utf-8"?>
<!-- Generator: Adobe Illustrator 23.1.0, SVG Export Plug-In . SVG Version: 6.00 Build 0)  -->
<svg version="1.1" id="Layer_1" xmlns="http://www.w3.org/2000/svg" xmlns:xlink="http://www.w3.org/1999/xlink" x="0px" y="0px"
	 viewBox="0 0 233 83" style="enable-background:new 0 0 233 83;" xml:space="preserve">
<title>Bitmap</title>
<g transform="translate(-374 -1053)">
	
		<image style="overflow:visible;enable-background:new    ;" width="1920" height="1080" xlink:href="949B75DC0E62C2AF.png"  transform="matrix(0.1 0 0 0.1 387 900)">
	</image>
</g>
<g>
	<g>
		<path d="M172.5,56.9v-0.3v-4l-1.8,4.3h-0.1l-1.8-4.3v4h0.5v0.3h-0.9v-0.3v-3.9H168v-0.3h1.2l1.6,3.8l1.5-3.8h1.2v0.3h-0.6v3.9h0.6
			v0.3H172.5z"/>
		<path d="M177,56.9v-0.3h0.6l-0.5-1.4h-1.8l-0.5,1.4h0v0.3h-0.9v-0.3h0.6l1.4-3.9l0.1-0.3h1.3v0.3h-0.6l1.4,3.9h0.6v0.3H177z
			 M176.2,52.5l-0.8,2.4h1.6L176.2,52.5z"/>
		<path d="M181.6,56.9l-1-2.3h-1v2.3h-0.4v-4.2h-0.7v-0.3h2.2c0.4,0,0.6,0.1,0.9,0.3c0.2,0.2,0.3,0.5,0.3,0.8c0,0.3-0.1,0.5-0.2,0.7
			c-0.2,0.2-0.4,0.3-0.8,0.4l0.9,2h0.6v0.3H181.6z M181.3,52.9c-0.2-0.1-0.4-0.2-0.7-0.2h-1.1v1.7h1c0.3,0,0.6-0.1,0.8-0.2
			c0.2-0.1,0.3-0.4,0.3-0.6C181.6,53.3,181.5,53.1,181.3,52.9z"/>
		<path d="M183.1,56.9v-0.3v-3.9h-0.6v-0.3h1.6v0.3h-0.6v1.8v2.1h0.6v0.3H183.1z M185.6,56.9l-0.3-0.3l-1.9-2.1l1.9-1.8l0.3-0.3h0.6
			v0.3h-0.5l-1.8,1.8l1.9,2.1h0.5v0.3H185.6z"/>
		<path d="M189.8,53.3v-0.6h-1.3v4.2h-1v-0.3h0.6v-3.9h-1.3v1.1h-0.3v-1.4h3.6v0.9H189.8z"/>
		<path d="M193.5,56.9h-0.7v-4.6h2.8v0.7h-2.1v1.3h1.9v0.7h-1.9V56.9z"/>
		<path d="M197.7,56.9c-0.8,0-1.7-0.5-1.7-1.4v-3.2h0.7v3.3c0,0.5,0.6,0.8,1,0.8c0.5,0,1-0.3,1-0.8v-3.2h0.7v3.3
			C199.4,56.5,198.5,56.9,197.7,56.9z M197.1,51.4c-0.2,0-0.4,0.1-0.4,0.4c0,0.2,0.2,0.3,0.4,0.3c0.2,0,0.4-0.2,0.4-0.3
			C197.5,51.5,197.3,51.4,197.1,51.4z M198.3,51.4c-0.2,0-0.4,0.1-0.4,0.4c0,0.2,0.2,0.3,0.4,0.3c0.2,0,0.4-0.2,0.4-0.3
			C198.7,51.5,198.6,51.4,198.3,51.4z"/>
		<path d="M200.7,54.2h2v-2h0.7v4.6h-0.7v-2h-2v2H200v-4.6h0.7V54.2z"/>
		<path d="M204.8,54.5h0.8c0.6,0,0.8-0.4,0.8-0.8c0-0.4-0.3-0.8-0.8-0.8h-1v4h-0.7v-4.7h1.7c1,0,1.5,0.7,1.5,1.5
			c0,0.7-0.4,1.3-1.2,1.4l1.5,1.7h-0.9l-1.7-2V54.5z"/>
		<path d="M208.2,56.2h2.2v0.7h-2.8v-4.6h2.8v0.7h-2.2v1.3h2.1v0.7h-2.1V56.2z"/>
		<path d="M210.8,56.9v-4.7l0.5,0l2.3,3.3v-3.3h0.7v4.7h-0.5l-2.2-3.2v3.2H210.8z"/>
		<path d="M216.4,52.3c1.5,0,2.3,1.2,2.3,2.3c0,1.2-0.8,2.3-2.3,2.3h-1.7v-4.6H216.4z M216.4,56.2c1.1,0,1.6-0.8,1.6-1.6
			c0-0.8-0.5-1.7-1.6-1.7h-1v3.3H216.4z"/>
	</g>
	<path d="M170.4,39.4l5.7,9.9h-0.6l-5.6-9.6h-1.4v9.6H168V31.4h-11.5v-0.5h12v8.3h1.4l5-8.3h0.6L170.4,39.4z"/>
	<path d="M185.8,33.3v6l-2.2,2.4l3.4,7.7h-0.6l-3.3-7.5h-3.4v7.5h-0.5V31.4h-1.7v-0.5h5.9L185.8,33.3z M183.1,41.3l0.3-0.1l1.9-2.2
		v-5.5l-2-2.1h-3.5v9.9H183.1z"/>
	<path d="M191,31.4v-0.5c1.2,0,2.4,0,3.6,0l3.7,18.4h-0.5l-1.2-5.6h-5.9l-1.1,5.6H189l3.5-17.9H191z M194.2,31.4H193l-2.2,11.7h5.6
		L194.2,31.4z"/>
	<path d="M207.2,31.5h-5.1v8.9h4.7v0.5h-4.7c0,2.8,0,5.6,0,8.4h-0.5V31.5l-1.7-0.1v-0.5h7.8v3.8h-0.4L207.2,31.5z"/>
	<path d="M214.1,31.3h-3.6l-0.1,3.3H210v-3.8h8.8v3.8h-0.4l-0.1-3.3h-3.6v18h-0.5V31.3z"/>
	<g>
		<g>
			<polygon points="40.6,23.6 48.8,23.6 44.7,34.9 			"/>
			<polygon points="62.7,36.2 62.7,44.4 51.4,40.3 			"/>
			<polygon points="48.8,57 40.6,57 44.7,45.7 			"/>
			<g>
				<g>
					<path d="M32.4,37.3c1-4.4,4.3-7.9,8.7-9.1l-1-2.7C35,27,31,31.2,29.6,36.3L32.4,37.3z"/>
				</g>
				<g>
					<path d="M48.3,28.5c4,1.4,7,4.7,8,8.8l2.8-1c-1.3-4.9-5-8.9-9.8-10.5L48.3,28.5z"/>
				</g>
				<g>
					<g>
						<path d="M41.2,51.9c-4-1.1-7.3-4.1-8.5-8l-2.8,1c1.6,4.8,5.4,8.6,10.3,9.9L41.2,51.9z"/>
					</g>
					<g>
						<path d="M56.1,43.2c-1.1,4-4.1,7.1-8,8.4l1.1,2.9c4.7-1.6,8.4-5.5,9.8-10.3L56.1,43.2z"/>
					</g>
				</g>
			</g>
			<polygon points="26.8,44.7 26.8,36.6 38,40.6 			"/>
		</g>
		<path d="M49.2,17.2c0,2.4-1.9,4.3-4.3,4.3c-2.4,0-4.3-1.9-4.3-4.3c0-2.4,1.9-4.3,4.3-4.3C47.3,12.9,49.2,14.8,49.2,17.2z"/>
		<path d="M49.2,63.2c0,2.4-1.9,4.3-4.3,4.3c-2.4,0-4.3-1.9-4.3-4.3c0-2.4,1.9-4.3,4.3-4.3C47.3,58.9,49.2,60.8,49.2,63.2z"/>
		<path d="M24.8,40.6c0,2.4-1.9,4.3-4.3,4.3c-2.4,0-4.3-1.9-4.3-4.3c0-2.4,1.9-4.3,4.3-4.3C22.9,36.3,24.8,38.2,24.8,40.6z"/>
		<path d="M73.3,40.2c0,2.4-1.9,4.3-4.3,4.3c-2.4,0-4.3-1.9-4.3-4.3c0-2.4,1.9-4.3,4.3-4.3C71.4,35.8,73.3,37.8,73.3,40.2z"/>
	</g>
	<g>
		<path d="M83.5,49.3L87.9,33h0.3l-1.6,14.4h2.8L95.5,33h0.3l-4.3,16.1h2.2l4.9-18.3h-4.4l-3,7.3l-2.3,6.4h-0.1l1.1-6.5l0.9-7.2H85
			L84.4,33h2.2l0,0.2l-1,0.5l-3.3,12.2c-0.3,0.7-1.6,3.4-5.4,3.4c4.1,0,5.3,0,5.3,0"/>
		<polygon points="106.2,41.2 106.8,39 102.7,39 104.2,33.1 107.3,33.1 106.7,35.2 109,35.2 110.1,30.9 101.3,30.9 100.7,33.1 
			102.9,33.1 102.9,33.3 101.8,33.8 97.7,49.2 105.4,49.2 106.5,45.1 104.3,45.1 103.8,46.9 100.5,46.9 102.1,41.2 		"/>
		<polygon points="118.3,32.9 118.8,30.8 113.1,30.8 112.6,32.9 115.3,32.9 115.2,33 114.2,33.6 110.5,47.1 108.6,47.1 108,49.2 
			114.2,49.2 114.7,47.1 112.8,47.1 116.6,32.9 		"/>
		<polygon points="124.4,30.7 121,33.5 119.8,38.1 125.2,42.7 124.4,45.6 122.5,47.1 120.9,47.1 119.9,45.6 120.5,43.1 118.3,43.1 
			117.4,46.5 119.4,49.3 122.9,49.3 126.3,46.5 127.6,41.5 122.3,36.9 123,34.4 124.7,32.9 126.3,32.9 127.3,34.4 126.7,36.3 
			128.9,36.3 129.7,33.5 127.8,30.7 		"/>
		<polygon points="141.9,34.8 143,30.8 132.9,30.8 131.9,34.8 133.7,34.8 134.3,32.8 136.3,32.8 131.9,49.2 134.1,49.2 138.5,32.8 
			140.5,32.8 140.1,34.8 		"/>
		<polygon points="152.7,35.2 153.9,30.9 145.1,30.9 144.5,33.1 146.7,33.1 146.7,33.3 145.6,33.8 141.5,49.2 149.2,49.2 
			150.3,45.1 148.1,45.1 147.6,46.9 144.3,46.9 145.8,41.2 150,41.2 150.5,39 146.4,39 148,33.1 151.1,33.1 150.5,35.2 		"/>
		<g>
			<path d="M167.3,49.3c-4.4,0-5.4-3.5-5.4-3.5l0,0.1l-0.7-3.7l2.5-2.1l1.7-6.3l-2.1-2.8h-6.7l-0.6,2.2h2.3l0,0.2l-1.1,0.6L153,49.2
				h2.2l1.7-6.2h1.9l1.3,6.3h2.3 M159.7,40.8h-2.2l2.1-7.7h2.3l1.1,1.5l-1.2,4.5L159.7,40.8z"/>
			<rect x="160.1" y="48.8" width="7.8" height="0.5"/>
		</g>
		<rect x="75.7" y="48.8" width="7.8" height="0.5"/>
	</g>
</g>
</svg>
