<?xml version="1.0" encoding="utf-8"?>
<!-- Generator: Adobe Illustrator 23.1.0, SVG Export Plug-In . SVG Version: 6.00 Build 0)  -->
<svg version="1.1" id="Layer_1" xmlns="http://www.w3.org/2000/svg" xmlns:xlink="http://www.w3.org/1999/xlink" x="0px" y="0px"
	 viewBox="0 0 200 64" style="enable-background:new 0 0 200 64;" xml:space="preserve">
<style type="text/css">
	.st0{fill:#424040;}
	.st1{fill-rule:evenodd;clip-rule:evenodd;fill:#1D1D1B;}
	.st2{fill:#13110C;}
</style>
<title>Bitmap</title>
<g transform="translate(-993 -1063)">
	
		<image style="overflow:visible;enable-background:new    ;" width="1280" height="427" xlink:href="50B84F00AA990D6B.png"  transform="matrix(0.1499 0 0 0.1499 1046.6608 977.6361)">
	</image>
</g>
<path class="st0" d="M51,8.9c1.5,1.7,2.5,4,2.5,6.5c0,5.5-4.4,9.9-9.9,9.9c-5.5,0-9.9-4.4-9.9-9.9c0-0.5,0.1-1,0.1-1.5
	c-1.4,0.9-2.5,1.7-3.3,2.4c0.5,6.9,6.1,12.3,13.1,12.3c7.3,0,13.2-5.9,13.2-13.2c0-2.3-0.6-4.4-1.6-6.3C53.8,9,52.4,8.9,51,8.9"/>
<path d="M33.7,15.4c0,5.5,4.4,9.9,9.9,9.9c5.5,0,9.9-4.4,9.9-9.9c0-2.5-0.9-4.8-2.5-6.5c-7.5,0-13.3,2.6-17.2,5
	C33.8,14.4,33.7,14.9,33.7,15.4"/>
<path class="st1" d="M33.7,34.3c0.9-0.1,1.8-0.1,2.7-0.2c4.7-0.4,9.4-1.2,13.8-3c2.9-1.2,5.5-2.7,7.8-4.7c3.7-3.3,6-7.3,7-12.2
	c0.3-1.3,0.4-2.7,0.4-4c0-0.3,0-0.5,0-0.8c-0.1,0-0.2,0-0.3,0c-1.8,0.5-3.7,0.8-5.6,0.9c-1.3,0.1-2.6,0.2-3.9,0.3
	c-1.4,0.1-2.9,0.2-4.3,0.3c-0.9,0.1-1.9,0.1-2.8,0.2c-0.5,0-0.9,0.1-1.4,0.1c0,0,0,0.1,0,0.1c0.1,0.1,0.2,0.1,0.3,0.2
	c1.2,1.2,1.8,2.7,1.7,4.4c-0.2,2.4-1.9,4.4-4.2,5c-1.7,0.4-3.2,0.1-4.7-0.8c-0.1,0-0.1-0.1-0.2-0.1c-0.2-0.1-0.2-0.2-0.1-0.4
	c0.1-0.4,0.1-0.7,0-1.1c-0.2-0.8-0.8-1.3-1.6-1.5c-0.3-0.1-0.3-0.1-0.4-0.4c-0.2-1-0.1-1.9,0.2-2.9c0-0.1,0.1-0.2,0.1-0.4
	c-0.2,0.1-0.3,0.1-0.4,0.2c-1.5,0.6-3,1.4-4.4,2.3c-0.9,0.5-1.7,1.1-2.5,1.8c-1.7,1.3-3.2,2.8-4.3,4.7c-0.8,1.2-1.4,2.6-1.6,4
	c-0.4,2,0,3.9,0.9,5.8c0.4,0.8,0.8,1.3,1.8,2.5c-0.1,0.1-0.1,0.2-0.2,0.2c-1.7,1.8-2.6,3.9-2.9,6.3c-0.3,2-0.1,4,0.5,6
	c0.2,0.8,0.5,1.6,0.8,2.4c0,0.1,0.1,0.2,0.1,0.3c0-0.1-0.1-0.1-0.1-0.2c-2.1-2.7-3.6-5.8-4.4-9.1c-0.5-2.1-0.7-4.2-0.5-6.4
	c0.2-2.9,0.9-5.6,1.8-8.2c3.3-9,10.8-15.9,20.2-18.2c1.9-0.5,3.7-0.8,5.7-1C50.7,6,53,5.9,55.2,5.9c1.9-0.1,3.8-0.1,5.6-0.2
	c3.4-0.2,6.8-0.6,10.2-1.3c0.1,0,0.1,0,0.2,0c0.2,0,0.3,0,0.3,0.2c0.1,0.3,0.1,0.5,0.1,0.8c0.1,1.1,0,2.1-0.1,3.2
	c-0.3,2.1-0.7,4.2-1.5,6.2c-1.9,5.2-5.1,9.4-9.7,12.5c-2.9,2-6,3.4-9.3,4.5c-2.7,0.9-5.4,1.5-8.2,1.9c-2.8,0.4-5.6,0.7-8.4,0.7
	c-0.2,0-0.5,0-0.7,0C33.8,34.3,33.7,34.3,33.7,34.3"/>
<path class="st1" d="M44.9,54.8v-2.9c-0.2,0.2-0.4,0.4-0.5,0.5c-1.1,1.3-2.5,2.3-4.1,2.7c-3.2,0.8-6,0-8.4-2.3
	c-4-3.9-4.2-11.3,1.4-15.3c3.3-2.3,7.6-1.8,10.6,1c0.5,0.5,0.9,1,1.4,1.5c1.3-1.2,2.6-2.4,3.9-3.6c0.1,0.4,0.2,17.4,0.1,18.4H44.9z
	 M43.9,45.8c0.1-2.6-2.2-5.1-5-5.1c-2.7,0-4.9,2.3-4.9,5c0,2.9,2.2,5.2,5,5.2C41.8,50.9,44,48.3,43.9,45.8"/>
<path class="st1" d="M81.9,48.8c1,0.7,2.1,1.5,3.1,2.3c-0.2,0.2-0.3,0.4-0.4,0.6c-2.4,2.8-5.5,3.9-9.1,3.7c-3-0.1-5.5-1.4-7.3-3.8
	c-2.6-3.3-3.1-9.3,1.6-13.2c2.2-1.8,4.7-2.5,7.5-2.2c3.9,0.4,6.6,2.6,8.1,6.2c0.6,1.3,0.7,2.8,0.7,4.3c-1.3,0.1-2.6,0-3.9,0
	c-1.3,0-2.6,0-3.9,0c-1.3,0-2.6,0-3.8,0h-3.9c0,0.2,0,0.3,0.1,0.5c0.8,3.1,3.4,4.2,5.4,4.3c2.2,0.2,4.1-0.6,5.6-2.3
	c0.1-0.1,0.2-0.2,0.3-0.3C81.7,48.9,81.8,48.8,81.9,48.8 M81.2,43.2c-1-2.2-3.3-3.4-5.8-3.1c-2.1,0.2-4.2,1.7-4.5,3.1H81.2z"/>
<path class="st1" d="M60.2,31.4v5.2c1.3,0,2.5,0,3.8,0v3.9h-3.8v14.3h-4.3c-0.1-0.7,0-1.3,0-2c0-0.7,0-1.4,0-2v-2v-2
	c0-0.7,0-1.4,0-2v-2v-2.1c-0.6-0.1-1.1-0.1-1.6-0.1c-0.5,0-1,0-1.6,0c0.2-0.2,0.2-0.3,0.3-0.5c0.9-1,1.7-2,2.6-2.9
	c0.3-0.3,0.4-0.6,0.4-1c0-1.3,0-2.7,0-4v-0.7C57.3,31.4,58.7,31.5,60.2,31.4"/>
<path class="st1" d="M90.6,26.4h4.3v28.3c-0.4,0.1-3.5,0.1-4.3,0V26.4z"/>
<path d="M40,18.8c0,1.2-0.9,2.1-2.1,2.1c-1.2,0-2.1-0.9-2.1-2.1c0-1.2,0.9-2.1,2.1-2.1C39,16.7,40,17.6,40,18.8"/>
<path class="st2" d="M106.4,39.2c2.2,0,4,0.8,5.4,2.4c1.3,1.4,1.9,3.1,1.9,5.1c0,2-0.7,3.7-2.1,5.2c-1.4,1.5-3.1,2.2-5.3,2.2
	c-2.2,0-3.9-0.7-5.3-2.2c-1.4-1.5-2.1-3.2-2.1-5.2c0-2,0.6-3.6,1.9-5.1C102.4,40,104.2,39.2,106.4,39.2 M106.4,41
	c-1.5,0-2.8,0.6-3.9,1.7c-1.1,1.1-1.6,2.5-1.6,4c0,1,0.2,2,0.7,2.8c0.5,0.9,1.2,1.6,2,2c0.8,0.5,1.8,0.7,2.8,0.7
	c1,0,1.9-0.2,2.8-0.7c0.8-0.5,1.5-1.2,2-2c0.5-0.9,0.7-1.8,0.7-2.8c0-1.6-0.5-2.9-1.6-4C109.1,41.6,107.8,41,106.4,41"/>
<path class="st2" d="M117.1,39.6h1.8v2.6c0.7-1,1.5-1.7,2.5-2.2c0.9-0.5,2-0.7,3.1-0.7c2,0,3.7,0.7,5.1,2.2c1.4,1.4,2.1,3.2,2.1,5.2
	c0,2.1-0.7,3.8-2.1,5.3c-1.4,1.4-3.1,2.2-5.1,2.2c-1.1,0-2.2-0.2-3.1-0.7c-0.9-0.5-1.8-1.2-2.5-2.1v7.6h-1.8V39.6z M124.3,41
	c-1.6,0-2.9,0.5-4,1.6c-1.1,1.1-1.6,2.5-1.6,4.1c0,1.1,0.2,2,0.7,2.9c0.5,0.9,1.2,1.5,2.1,2c0.9,0.5,1.8,0.8,2.8,0.8
	c1,0,1.9-0.3,2.7-0.8c0.9-0.5,1.5-1.2,2-2.1c0.5-0.9,0.8-1.9,0.8-2.8c0-1-0.3-1.9-0.8-2.8c-0.5-0.9-1.2-1.6-2-2.1
	C126.3,41.2,125.3,41,124.3,41"/>
<polygon class="st2" points="136.7,34.4 138.5,34.4 138.5,39.6 141.4,39.6 141.4,41.2 138.5,41.2 138.5,53.7 136.7,53.7 136.7,41.2 
	134.2,41.2 134.2,39.6 136.7,39.6 "/>
<path class="st2" d="M144.7,33.8c0.4,0,0.8,0.1,1.1,0.4c0.3,0.3,0.4,0.6,0.4,1.1c0,0.4-0.1,0.8-0.4,1c-0.3,0.3-0.6,0.4-1.1,0.4
	c-0.4,0-0.7-0.1-1-0.4c-0.3-0.3-0.4-0.6-0.4-1c0-0.4,0.1-0.8,0.4-1.1C144,34,144.3,33.8,144.7,33.8 M143.8,39.6h1.8v14.1h-1.8V39.6z
	"/>
<path class="st2" d="M163.1,42.5l-1.4,0.9c-1.2-1.6-2.9-2.5-5.1-2.5c-1.7,0-3.1,0.6-4.3,1.7c-1.1,1.1-1.7,2.4-1.7,4
	c0,1,0.3,2,0.8,2.9c0.5,0.9,1.2,1.6,2.1,2.1c0.9,0.5,1.9,0.8,3.1,0.8c2.1,0,3.8-0.8,5.1-2.5l1.4,0.9c-0.7,1-1.6,1.8-2.7,2.4
	c-1.1,0.6-2.4,0.8-3.9,0.8c-2.2,0-4.1-0.7-5.5-2.1c-1.5-1.4-2.2-3.1-2.2-5.2c0-1.4,0.3-2.6,1-3.8c0.7-1.2,1.6-2.1,2.8-2.7
	c1.2-0.7,2.5-1,4-1c0.9,0,1.8,0.1,2.7,0.4c0.9,0.3,1.6,0.7,2.2,1.1C162.2,41.2,162.7,41.8,163.1,42.5"/>
<path class="st2" d="M173.7,41.1l-1.2,1.2c-1-0.9-1.9-1.4-2.8-1.4c-0.6,0-1.1,0.2-1.5,0.6c-0.4,0.4-0.6,0.8-0.6,1.4
	c0,0.5,0.2,0.9,0.5,1.3c0.3,0.4,1.1,0.9,2.2,1.5c1.4,0.7,2.3,1.4,2.8,2c0.5,0.7,0.7,1.4,0.7,2.2c0,1.2-0.4,2.1-1.2,2.9
	c-0.8,0.8-1.8,1.2-3,1.2c-0.8,0-1.6-0.2-2.3-0.5c-0.7-0.4-1.4-0.8-1.8-1.5l1.1-1.3c0.9,1,1.9,1.6,2.9,1.6c0.7,0,1.3-0.2,1.9-0.7
	c0.5-0.5,0.8-1,0.8-1.6c0-0.5-0.2-1-0.5-1.4c-0.3-0.4-1.1-0.9-2.3-1.5c-1.3-0.7-2.1-1.3-2.6-1.9c-0.5-0.6-0.7-1.4-0.7-2.2
	c0-1.1,0.4-2,1.1-2.7c0.7-0.7,1.7-1.1,2.8-1.1C171,39.2,172.3,39.9,173.7,41.1"/>
</svg>
