<?xml version="1.0" encoding="utf-8"?>
<!-- Generator: Adobe Illustrator 23.1.0, SVG Export Plug-In . SVG Version: 6.00 Build 0)  -->
<svg version="1.1" id="Layer_1" xmlns="http://www.w3.org/2000/svg" xmlns:xlink="http://www.w3.org/1999/xlink" x="0px" y="0px"
	 viewBox="0 0 115 115" style="enable-background:new 0 0 115 115;" xml:space="preserve">
<style type="text/css">
	.st0{fill:#1D1D1B;}
</style>
<title>Bitmap</title>
<g transform="translate(-731 -1036)">
	
		<image style="overflow:visible;enable-background:new    ;" width="2400" height="2400" xlink:href="6B472F4257C916F1.png"  transform="matrix(4.000000e-02 0 0 4.000000e-02 1064 1045)">
	</image>
</g>
<g>
	<g>
		<path class="st0" d="M58.9,81.1c-20.8,0-37.7-9.2-37.7-20.4c0-11.2,16.9-20.4,37.7-20.4c20.8,0,37.7,9.2,37.7,20.4
			C96.6,71.9,79.7,81.1,58.9,81.1z M58.9,41.4c-9.8,0-19.1,2-26,5.8c-6.8,3.7-10.6,8.5-10.6,13.5c0,5.1,3.8,9.9,10.6,13.6
			c7,3.7,16.2,5.8,26,5.8c9.8,0,19-2.1,26-5.8c6.8-3.7,10.6-8.5,10.6-13.6c0-5.1-3.8-9.9-10.6-13.5C77.9,43.4,68.7,41.4,58.9,41.4z"
			/>
	</g>
	<g>
		<path class="st0" d="M56.7,44.5c-0.6-1.4,3.1-1.4,2.6,0c-0.2,0.4-0.7,0.8-0.6,1.4c0,0.5,1.1,0.2,1.2,0.9c0.2,1.1-1.7,3.9-0.8,4.8
			c0,0,0.1,0.1,0.2,0.1c0.2,0,0.5,0,0.7,0c1.5-0.8-0.8-4.9,1.2-5.3c0.5-0.1,1.1,0,1.5,0.2c1.7,0.8-0.4,3.5-0.6,4.7
			c0,0.3,0.1,0.7,0.4,0.8c1,0,0.9-2.8,1.1-3.5c0.1-0.4,0.3-1,0.7-1.3c0.2-0.1,0.6-0.2,0.8-0.1c0.5,0.1,0.8,0.6,0.7,1.1
			c0,1-0.9,1.9-1.3,2.8c-0.4,1-0.5,2-1,2.9c-0.1,0.2-0.2,0.4-0.4,0.5c-0.1,0-0.2,0.1-0.2,0.1c-0.6,0.2-1.8-0.2-2.5-0.3
			c-1.1-0.1-2.3-0.1-3.5-0.1c-0.9,0.1-1.7,0.2-2.5,0.3c-0.3,0-0.6,0.1-1,0.1c-0.2,0-0.4,0-0.6-0.2c-0.5-0.4-1.1-2.7-1.4-3.4
			c-0.4-0.8-1.7-2.5-1.1-3.5c0.2-0.3,0.4-0.4,0.8-0.4c1.6,0,1.5,2.9,1.7,4.1c0,0.3,0.5,1.4,1,0.8c1-1.2-2.1-3.8-0.9-5.1
			c0.2-0.3,0.6-0.4,1-0.4c0.2,0,0.8-0.2,1.4,0c1.4,0.6-0.9,5.5,1.4,5.3c0.2,0,0.4-0.1,0.4-0.2c0.9-1-1.5-4.1-0.8-5
			c0.2-0.2,1.1-0.3,1.1-0.6C57.5,45.3,56.8,44.9,56.7,44.5z"/>
	</g>
	<g>
		<rect x="57.8" y="66.9" class="st0" width="3.9" height="10.3"/>
	</g>
	<g>
		<polygon class="st0" points="63,77.2 63,66.9 66.9,66.9 66.9,73.7 69.4,73.7 69.4,77.2 		"/>
	</g>
	<g>
		<polygon class="st0" points="32.8,65.8 32.8,55.6 37,55.6 37,58.7 38.4,55.6 42.6,55.6 40.3,60 43,65.8 38.6,65.8 37,62.4 
			37,65.8 		"/>
	</g>
	<path class="st0" d="M50.7,61.6c0.6-0.3,0.8-0.4,1.2-0.8c0.4-0.5,0.5-1.1,0.5-1.8c0-1.1-0.4-1.9-1.1-2.5c-0.7-0.6-1.4-0.9-3.2-0.9
		h-0.1h-4.8v10.1h4v-3.1l0.8,1.5l0.8,1.6h4.1L50.7,61.6z M48.5,60c-0.2,0.1-0.3,0.2-0.5,0.2c-0.1,0-0.2,0-0.2,0h-0.5v-1.9h0.5
		c0.1,0,0.2,0,0.2,0c0.2,0,0.4,0.1,0.5,0.2c0.2,0.2,0.2,0.4,0.2,0.8C48.7,59.6,48.6,59.8,48.5,60z"/>
	<g>
		<polygon class="st0" points="74.6,65.8 74.6,55.6 78,55.6 80.8,59.2 80.8,55.6 84.5,55.6 84.5,65.8 81.3,65.8 78.2,61.9 
			78.2,65.8 		"/>
	</g>
	<path class="st0" d="M62.9,58.6c-0.2-0.6-0.6-1.2-1.1-1.7c-0.5-0.5-1.1-0.9-1.7-1.2c-0.7-0.3-1.4-0.4-2.1-0.4c0,0,0,0,0,0
		c-0.7,0-1.4,0.1-2.1,0.4c-0.6,0.2-1.2,0.6-1.7,1.2c-0.5,0.5-0.9,1.1-1.2,1.7c-0.2,0.6-0.4,1.4-0.4,2.1c0,0.8,0.2,1.5,0.4,2.1
		c0.2,0.6,0.6,1.2,1.2,1.7c0.5,0.5,1.1,0.9,1.7,1.2c0.6,0.3,1.4,0.4,2.1,0.4c0,0,0,0,0,0c0.7,0,1.4-0.2,2.1-0.4
		c0.6-0.2,1.2-0.6,1.7-1.2c0.5-0.5,0.9-1.1,1.2-1.7c0.3-0.6,0.4-1.4,0.4-2.1C63.3,60,63.1,59.2,62.9,58.6z M58.9,61.8
		c-0.2,0.3-0.6,0.4-1,0.4c0,0,0,0,0,0c-0.4,0-0.7-0.2-1-0.4c-0.3-0.3-0.4-0.6-0.4-1.1c0-0.5,0.1-0.8,0.4-1.1c0.2-0.3,0.6-0.4,1-0.4
		c0,0,0,0,0,0c0.4,0,0.7,0.2,1,0.4c0.2,0.3,0.4,0.7,0.4,1.2C59.2,61.2,59.1,61.5,58.9,61.8z"/>
	<path class="st0" d="M73.9,58.6c-0.2-0.6-0.6-1.2-1.1-1.7c-0.5-0.5-1.1-0.9-1.7-1.2c-0.6-0.3-1.4-0.4-2.1-0.4c0,0,0,0,0,0
		c-0.8,0-1.4,0.1-2.1,0.4c-0.7,0.2-1.3,0.6-1.8,1.2c-0.5,0.5-0.9,1.1-1.1,1.7c-0.2,0.6-0.4,1.4-0.4,2.1c0,0.8,0.2,1.5,0.4,2.1
		c0.2,0.6,0.6,1.2,1.1,1.7c0.5,0.5,1.1,0.9,1.8,1.2c0.6,0.2,1.4,0.4,2.1,0.4c0,0,0,0,0,0c0.7,0,1.4-0.2,2.1-0.4
		c0.6-0.3,1.2-0.7,1.7-1.2c0.5-0.5,0.9-1.1,1.2-1.7c0.2-0.6,0.4-1.4,0.4-2.1C74.3,60,74.1,59.2,73.9,58.6z M69.9,61.8
		c-0.2,0.3-0.6,0.4-1,0.4c-0.4,0-0.7-0.2-1-0.4c-0.3-0.3-0.4-0.6-0.4-1.1c0-0.5,0.1-0.8,0.4-1.1c0.2-0.3,0.6-0.4,1-0.4
		c0.4,0,0.8,0.2,1,0.4c0.2,0.2,0.4,0.6,0.4,1.1C70.3,61.2,70.1,61.5,69.9,61.8z"/>
	<path class="st0" d="M57,69.9c-0.3-0.6-0.6-1.2-1.1-1.7c-0.5-0.5-1.1-0.9-1.7-1.2c-0.7-0.3-1.4-0.4-2.1-0.4c-0.8,0-1.5,0.1-2.1,0.4
		c-0.6,0.3-1.2,0.6-1.7,1.2c-0.5,0.5-0.9,1.1-1.2,1.7c-0.2,0.6-0.4,1.4-0.4,2.1c0,0.8,0.1,1.5,0.4,2.1c0.3,0.7,0.7,1.2,1.2,1.8
		c0.5,0.5,1.1,0.9,1.7,1.2c0.6,0.2,1.4,0.4,2.1,0.4c0.7,0,1.4-0.1,2.1-0.4c0.6-0.3,1.2-0.7,1.7-1.2c0.5-0.5,0.8-1.1,1.1-1.8
		c0.3-0.6,0.4-1.4,0.4-2.1C57.3,71.2,57.3,70.5,57,69.9z M53,73.1c-0.3,0.3-0.6,0.4-1,0.4c-0.4,0-0.8-0.2-1-0.4
		c-0.2-0.2-0.4-0.6-0.4-1.1c0-0.4,0.1-0.8,0.4-1.1c0.2-0.3,0.6-0.4,1-0.4c0.4,0,0.7,0.1,1,0.4c0.2,0.3,0.4,0.7,0.4,1.1
		C53.4,72.4,53.2,72.8,53,73.1z"/>
	<g>
		<path class="st0" d="M65.8,54.7c-0.6,0-1.1-0.5-1.1-1c0-0.6,0.5-1,1.1-1c0.6,0,1,0.5,1,1C66.9,54.2,66.4,54.7,65.8,54.7z
			 M65.8,52.8c-0.5,0-0.9,0.4-0.9,0.8c0,0.5,0.4,0.9,0.9,0.9c0.5,0,0.9-0.4,0.9-0.9C66.7,53.2,66.3,52.8,65.8,52.8z"/>
	</g>
	<g>
		<path class="st0" d="M65.8,53.4L65.8,53.4c0.2,0,0.2,0.1,0.2,0.1c0,0.1-0.1,0.2-0.2,0.2h0v0.2c0.2,0,0.2,0,0.2,0.2
			c0,0.1,0,0.1,0,0.2h0.2v0c0,0,0,0,0-0.2c0-0.2,0-0.2-0.2-0.2c0.1,0,0.2-0.2,0.2-0.3c0,0,0-0.3-0.3-0.3h-0.1V53.4z M65.6,53.6v-0.3
			h0.2v-0.2h-0.4v1h0.2v-0.4h0.2v-0.2H65.6z"/>
	</g>
</g>
</svg>
